<?xml version="1.0" encoding="iso-8859-1"?>
<!-- Generator: Adobe Illustrator 18.1.1, SVG Export Plug-In . SVG Version: 6.00 Build 0)  -->
<svg version="1.1" id="Capa_1" xmlns="http://www.w3.org/2000/svg" xmlns:xlink="http://www.w3.org/1999/xlink" x="0px" y="0px"
	 viewBox="0 0 290 290" style="enable-background:new 0 0 290 290;" xml:space="preserve">
<g>
	<path id="rect26502" d="M95,0c-2.761,0-5,2.239-5,5v280c0,2.762,2.239,5,5.001,5c1.484,0,2.891-0.659,3.841-1.799L145,232.811
		l46.158,55.391c1.768,2.121,4.921,2.408,7.043,0.64c1.14-0.95,1.799-2.357,1.799-3.841V5c0-2.761-2.239-5-5-5H95z M100,10h90
		v261.189l-41.158-49.391c-1.768-2.122-4.921-2.409-7.043-0.641c-0.233,0.194-0.447,0.408-0.641,0.641L100,271.189V10z M110,17.5
		c-1.381,0-2.5,1.119-2.5,2.5v65c-0.02,1.381,1.084,2.516,2.465,2.535c1.381,0.02,2.516-1.084,2.535-2.465c0-0.024,0-0.047,0-0.071
		V22.5H145c1.381,0.02,2.516-1.084,2.535-2.465s-1.084-2.516-2.465-2.535c-0.024,0-0.047,0-0.071,0H110z"/>
</g>
<g>
</g>
<g>
</g>
<g>
</g>
<g>
</g>
<g>
</g>
<g>
</g>
<g>
</g>
<g>
</g>
<g>
</g>
<g>
</g>
<g>
</g>
<g>
</g>
<g>
</g>
<g>
</g>
<g>
</g>
</svg>
